<?xml version="1.0" encoding="UTF-8"?>
<!DOCTYPE svg PUBLIC "-//W3C//DTD SVG 1.1//EN" "http://www.w3.org/Graphics/SVG/1.1/DTD/svg11.dtd">
<!-- Creator: CorelDRAW 2021 (64-Bit) -->
<svg xmlns="http://www.w3.org/2000/svg" xml:space="preserve" width="462px" height="512px" version="1.1" shape-rendering="geometricPrecision" text-rendering="geometricPrecision" image-rendering="optimizeQuality" fill-rule="evenodd" clip-rule="evenodd"
viewBox="0 0 462 511.93"
 xmlns:xlink="http://www.w3.org/1999/xlink"
 xmlns:xodm="http://www.corel.com/coreldraw/odm/2003">
 <g id="Layer_x0020_1">
  <metadata id="CorelCorpID_0Corel-Layer"/>
  <path fill="black" d="M22.37 0l417.26 0c12.31,0 22.37,10.06 22.37,22.37l0 400.73c0,12.3 -10.06,22.37 -22.37,22.37l-32.27 0 0 19.01c0,6.2 -5.06,11.27 -11.26,11.27l-25.1 0 0 32.03c0,2.28 -1.87,4.15 -4.15,4.15l-32.33 0c-4.56,0 -8.29,-3.73 -8.29,-8.29l0 -27.89 -33.43 0 0 32.03c0,2.28 -1.86,4.15 -4.14,4.15l-32.34 0c-4.56,0 -8.28,-3.73 -8.28,-8.29l0 -27.89 -33.43 0 0 32.03c0,2.28 -1.86,4.15 -4.14,4.15l-32.34 0c-4.56,0 -8.28,-3.73 -8.28,-8.29l0 -27.89 -33.43 0 0 32.03c0,2.28 -1.86,4.15 -4.14,4.15l-32.34 0c-4.56,0 -8.28,-3.73 -8.28,-8.29l0 -27.89 -25.76 0c-6.2,0 -11.26,-5.07 -11.26,-11.27l0 -19.01 -32.27 0c-12.31,0 -22.37,-10.07 -22.37,-22.37l0 -400.73c0,-12.31 10.06,-22.37 22.37,-22.37zm61.36 103.62l294.54 0c3.34,0 6.38,1.38 8.57,3.57 2.19,2.19 3.56,5.23 3.56,8.57l0 53.77c0,3.33 -1.37,6.37 -3.56,8.56 -2.2,2.2 -5.23,3.57 -8.57,3.57l-294.54 0c-3.34,0 -6.38,-1.37 -8.57,-3.57 -2.19,-2.19 -3.56,-5.23 -3.56,-8.56l0 -53.77c0,-3.34 1.36,-6.37 3.56,-8.57 2.2,-2.21 5.23,-3.57 8.57,-3.57zm159 210.98l15.79 0c2.29,0.01 4.15,1.87 4.15,4.16 0,0.83 -0.25,1.63 -0.7,2.32l-37.64 64.27c-0.75,1.23 -2.09,1.98 -3.53,1.98 -2.29,0 -4.15,-1.86 -4.15,-4.14 0,-0.28 0.02,-0.55 0.08,-0.81l5.55 -39.45 -18.73 0.32c-0.02,0 -0.05,0 -0.08,0 -2.25,0 -4.09,-1.81 -4.13,-4.06 0,-0.01 0,-0.01 0,-0.02 0,-0.75 0.2,-1.5 0.58,-2.15l37.06 -64.26c0.75,-1.24 2.1,-2 3.55,-2 2.29,0 4.15,1.85 4.15,4.15 0,0.18 -0.02,0.36 -0.04,0.54l-1.91 39.15zm151.34 -255.93c5.79,0 10.49,4.95 10.49,11.06 0,6.1 -4.7,11.05 -10.49,11.05 -5.8,0 -10.5,-4.95 -10.5,-11.05 0,-6.11 4.7,-11.06 10.5,-11.06zm-326.13 0c5.8,0 10.5,4.95 10.5,11.06 0,6.1 -4.7,11.05 -10.5,11.05 -5.8,0 -10.5,-4.95 -10.5,-11.05 0,-6.11 4.7,-11.06 10.5,-11.06zm0 307.96c5.8,0 10.5,4.96 10.5,11.06 0,6.11 -4.7,11.06 -10.5,11.06 -5.8,0 -10.5,-4.95 -10.5,-11.06 0,-6.1 4.7,-11.06 10.5,-11.06zm326.13 0c5.79,0 10.49,4.96 10.49,11.06 0,6.11 -4.7,11.06 -10.49,11.06 -5.8,0 -10.5,-4.95 -10.5,-11.06 0,-6.1 4.7,-11.06 10.5,-11.06zm-38.94 -206.03c-3.07,0 -5.53,-0.96 -7.39,-2.88 -1.85,-1.92 -2.77,-4.45 -2.77,-7.59l0 -14.98c0,-3.15 0.92,-5.67 2.77,-7.59 1.86,-1.92 4.32,-2.88 7.39,-2.88 3.08,0 5.55,0.96 7.4,2.88 1.85,1.92 2.78,4.44 2.78,7.59l0 14.98c0,3.14 -0.93,5.67 -2.78,7.59 -1.85,1.92 -4.32,2.88 -7.4,2.88zm0 -7.1c0.6,0 1.08,-0.26 1.42,-0.79 0.35,-0.53 0.52,-1.22 0.52,-2.08l0 -15.98c0,-0.86 -0.17,-1.56 -0.52,-2.09 -0.34,-0.52 -0.82,-0.79 -1.42,-0.79 -0.59,0 -1.06,0.27 -1.41,0.79 -0.34,0.53 -0.52,1.23 -0.52,2.09l0 15.98c0,0.86 0.18,1.55 0.52,2.08 0.35,0.53 0.82,0.79 1.41,0.79zm-61.12 7.1c-3.07,0 -5.54,-0.96 -7.39,-2.88 -1.85,-1.92 -2.78,-4.45 -2.78,-7.59l0 -14.98c0,-3.15 0.93,-5.67 2.78,-7.59 1.85,-1.92 4.32,-2.88 7.39,-2.88 3.08,0 5.55,0.96 7.4,2.88 1.85,1.92 2.77,4.44 2.77,7.59l0 14.98c0,3.14 -0.92,5.67 -2.77,7.59 -1.85,1.92 -4.32,2.88 -7.4,2.88zm0 -7.1c0.6,0 1.07,-0.26 1.42,-0.79 0.35,-0.53 0.52,-1.22 0.52,-2.08l0 -15.98c0,-0.86 -0.17,-1.56 -0.52,-2.09 -0.35,-0.52 -0.82,-0.79 -1.42,-0.79 -0.59,0 -1.07,0.27 -1.41,0.79 -0.35,0.53 -0.52,1.23 -0.52,2.09l0 15.98c0,0.86 0.17,1.55 0.52,2.08 0.34,0.53 0.82,0.79 1.41,0.79zm-63.81 7.1c-3.07,0 -5.54,-0.96 -7.39,-2.88 -1.85,-1.92 -2.77,-4.45 -2.77,-7.59l0 -14.98c0,-3.15 0.92,-5.67 2.77,-7.59 1.85,-1.92 4.32,-2.88 7.39,-2.88 3.08,0 5.54,0.96 7.4,2.88 1.85,1.92 2.77,4.44 2.77,7.59l0 14.98c0,3.14 -0.92,5.67 -2.77,7.59 -1.86,1.92 -4.32,2.88 -7.4,2.88zm0 -7.1c0.6,0 1.07,-0.26 1.42,-0.79 0.35,-0.53 0.52,-1.22 0.52,-2.08l0 -15.98c0,-0.86 -0.17,-1.56 -0.52,-2.09 -0.35,-0.52 -0.82,-0.79 -1.42,-0.79 -0.59,0 -1.06,0.27 -1.41,0.79 -0.35,0.53 -0.52,1.23 -0.52,2.09l0 15.98c0,0.86 0.17,1.55 0.52,2.08 0.35,0.53 0.82,0.79 1.41,0.79zm-61.33 7.1c-3.07,0 -5.54,-0.96 -7.39,-2.88 -1.85,-1.92 -2.77,-4.45 -2.77,-7.59l0 -14.98c0,-3.15 0.92,-5.67 2.77,-7.59 1.85,-1.92 4.32,-2.88 7.39,-2.88 3.08,0 5.55,0.96 7.4,2.88 1.85,1.92 2.77,4.44 2.77,7.59l0 14.98c0,3.14 -0.92,5.67 -2.77,7.59 -1.85,1.92 -4.32,2.88 -7.4,2.88zm0 -7.1c0.6,0 1.07,-0.26 1.42,-0.79 0.35,-0.53 0.52,-1.22 0.52,-2.08l0 -15.98c0,-0.86 -0.17,-1.56 -0.52,-2.09 -0.35,-0.52 -0.82,-0.79 -1.42,-0.79 -0.59,0 -1.06,0.27 -1.41,0.79 -0.35,0.53 -0.52,1.23 -0.52,2.09l0 15.98c0,0.86 0.17,1.55 0.52,2.08 0.35,0.53 0.82,0.79 1.41,0.79zm-61.16 7.1c-3.08,0 -5.54,-0.96 -7.39,-2.88 -1.85,-1.92 -2.78,-4.45 -2.78,-7.59l0 -14.98c0,-3.15 0.93,-5.67 2.78,-7.59 1.85,-1.92 4.31,-2.88 7.39,-2.88 3.07,0 5.54,0.96 7.39,2.88 1.85,1.92 2.78,4.44 2.78,7.59l0 14.98c0,3.14 -0.93,5.67 -2.78,7.59 -1.85,1.92 -4.32,2.88 -7.39,2.88zm0 -7.1c0.6,0 1.07,-0.26 1.41,-0.79 0.35,-0.53 0.53,-1.22 0.53,-2.08l0 -15.98c0,-0.86 -0.18,-1.56 -0.53,-2.09 -0.34,-0.52 -0.81,-0.79 -1.41,-0.79 -0.6,0 -1.07,0.27 -1.41,0.79 -0.35,0.53 -0.52,1.23 -0.52,2.09l0 15.98c0,0.86 0.17,1.55 0.52,2.08 0.34,0.53 0.81,0.79 1.41,0.79zm58.85 102.29c-4.25,0 -7.69,-3.45 -7.69,-7.69 0,-4.24 3.44,-7.68 7.69,-7.68l128.88 0c4.25,0 7.69,3.44 7.69,7.68 0,4.24 -3.44,7.69 -7.69,7.69l-128.88 0zm-50.58 -38.85c-4.24,0 -7.69,-3.44 -7.69,-7.68 0,-4.24 3.45,-7.69 7.69,-7.69l230.04 0c4.24,0 7.68,3.45 7.68,7.69 0,4.24 -3.44,7.68 -7.68,7.68l-230.04 0zm212.57 -103.71l0 58.82 49.72 0c0.69,0 1.32,-0.29 1.78,-0.75 0.46,-0.45 0.75,-1.09 0.75,-1.77l0 -53.77c0,-0.69 -0.29,-1.33 -0.75,-1.79 -0.45,-0.45 -1.09,-0.74 -1.78,-0.74l-49.72 0zm-9.61 58.82l0 -58.82 -52.26 0 0 58.82 52.26 0zm-61.87 0l0 -58.82 -52.14 0 0 58.82 52.14 0zm-61.75 0l0 -58.82 -52.3 0 0 58.82 52.3 0zm-61.91 0l0 -58.82 -49.68 0c-0.7,0 -1.33,0.29 -1.79,0.74 -0.45,0.46 -0.74,1.09 -0.74,1.79l0 53.77c0,0.69 0.29,1.32 0.74,1.77 0.46,0.46 1.1,0.75 1.79,0.75l49.68 0zm-74.08 -133.14l343.34 0c12.31,0 22.37,10.07 22.37,22.37l0 324.85c0,12.3 -10.07,22.37 -22.37,22.37l-343.34 0c-12.3,0 -22.37,-10.06 -22.37,-22.37l0 -324.85c0,-12.31 10.06,-22.37 22.37,-22.37z"/>
 </g>
</svg>
