<svg id="Layer_1" data-name="Layer 1" xmlns="http://www.w3.org/2000/svg" viewBox="0 0 117.48 122.88"><defs><style>.cls-1{fill-rule:evenodd;}</style></defs><title>electrical-engineering</title><path class="cls-1" d="M117.48,99.66a23.09,23.09,0,0,1-3.07,11.55V112H114A23.22,23.22,0,1,1,76.28,85V81.12l-5.59-2.29L58.85,91.71H55.56L43.72,78.83l-5.59,2.29V112h-4.4v-29l-8.34,3.41v25.62H21V88.11l-6.07,2.48a21.43,21.43,0,0,0-7.55,6.54,17.81,17.81,0,0,0-3,8.85v6H0v-6H0a.61.61,0,0,1,0-.14,22,22,0,0,1,3.72-11A25.85,25.85,0,0,1,12.8,86.9c.1-.06.2-.1.3-.15L41.85,75V66.59q-.43-.37-.84-.78c-4-4-6.71-9.84-7.48-18.72l-1.45-1.48a2.06,2.06,0,0,1-.72-1.55V40.61h4.39v2.61l1.49,1.51a2,2,0,0,1,.6,1.31h0c.59,8.21,2.89,13.47,6.3,16.84S52,67.7,57.06,68.49A20.73,20.73,0,0,0,70,61.67c3.31-3.84,5.3-9.15,5.92-15.65a2,2,0,0,1,.46-1.09h0l1.34-1.65,0-2.82,4.38,0,0,3.38a2.07,2.07,0,0,1-.46,1.45l-1.4,1.73C79.4,54.11,77.1,60,73.34,64.35a22,22,0,0,1-1.77,1.84v8.44l11.48,4.69a23,23,0,0,1,11.18-2.88h0a23.22,23.22,0,0,1,23.22,23.22ZM47.72,6.18A1.91,1.91,0,0,1,47,6.07c-6.4,2.86-11.57,9.14-13,19.61a2.18,2.18,0,0,1-2.45,1.82,2.12,2.12,0,0,1-1.9-2.34c1.64-12.2,7.9-19.57,15.64-23A26.94,26.94,0,0,1,57.67.05,30.21,30.21,0,0,1,69.78,3.36c7.92,4.11,14,11.78,14.39,22a2.13,2.13,0,0,1-2.1,2.19,2.15,2.15,0,0,1-2.28-2A21.59,21.59,0,0,0,67.7,7.08l-.87-.43a2.2,2.2,0,0,1-.78.12c-2,0-2.51,3.5-2.63,8.29-.06,2.14,0,4.5,0,6.91,0,1.92.08,3.88.08,5.18a2.18,2.18,0,0,1-4.36,0c0-2.12,0-3.63-.06-5.11,0-2.47-.09-4.87,0-7.09.11-4.32.62-8,2.2-10.17a25.21,25.21,0,0,0-3.86-.52,23.89,23.89,0,0,0-4.86.21c1.45,2.25,1.95,5.86,2.06,10.09.05,2.29,0,4.79,0,7.35,0,1.53-.06,3.08-.06,5.24a2.12,2.12,0,0,1-4.24,0c0-1.35,0-3.34.07-5.31,0-2.51.1-5,0-7.17-.11-4.91-.64-8.54-2.67-8.49Zm-1.47,63.4v5.61l11,11.93,10-10.86V69.42a27.56,27.56,0,0,1-9.72,3.27,2.23,2.23,0,0,1-.73,0,32.71,32.71,0,0,1-10.48-3.12ZM29.87,28a8.2,8.2,0,0,0,3.18,3.22c4.87,3,13.44,4.51,22.28,4.54s18-1.43,23.84-4.19a11.55,11.55,0,0,0,4.91-3.77l3.76,2.16a15.59,15.59,0,0,1-6.73,5.38c-6.43,3.05-16.24,4.64-25.79,4.62s-19.06-1.72-24.66-5.22a12.32,12.32,0,0,1-4.78-5l4-1.74ZM54.12,96h5.32v5.12H54.12V96Zm0,10.51h5.32v5.12H54.12V106.5ZM97.35,95.86h4.15a1.09,1.09,0,0,1,.91,1.7L92.5,114.48a1.09,1.09,0,0,1-2-.78L92,103.31,87,103.4a1.08,1.08,0,0,1-.93-1.64l9.75-16.92a1.09,1.09,0,0,1,2,.71l-.5,10.31Z"/></svg>