<svg xmlns="http://www.w3.org/2000/svg" viewBox="0 0 122.88 79.39"><defs><style>.a{fill-rule:evenodd;}</style></defs><title>inverter</title><path class="a" d="M9.22,0H113.66a9.25,9.25,0,0,1,9.22,9.22V59.29a9.24,9.24,0,0,1-9,9.21v8A2.88,2.88,0,0,1,111,79.39H95.94l-9.1-10.88H36l-9.1,10.88H11.86A2.88,2.88,0,0,1,9,76.52v-8a9.24,9.24,0,0,1-9-9.21V9.22A9.25,9.25,0,0,1,9.22,0ZM21.79,37.58a4.17,4.17,0,1,1-4.17,4.17,4.17,4.17,0,0,1,4.17-4.17Zm0-15a4.17,4.17,0,1,1-4.17,4.17,4.17,4.17,0,0,1,4.17-4.17Zm14.35,2.87H71.77a2.42,2.42,0,0,1,2.41,2.4V40.65a2.42,2.42,0,0,1-2.41,2.4H36.14a2.41,2.41,0,0,1-2.4-2.4V27.86a2.41,2.41,0,0,1,2.4-2.4Zm76.94-5.88-11.06.1L98,33.74l5.48.06L97.65,48.43,113,29.71h-6.74l6.8-10.13ZM8.89,52.1V16.41H82.71A4.26,4.26,0,0,1,87,20.65v27.2a4.27,4.27,0,0,1-4.25,4.25Z"/></svg>