<?xml version="1.0" encoding="utf-8"?><svg version="1.1" id="Layer_1" xmlns="http://www.w3.org/2000/svg" xmlns:xlink="http://www.w3.org/1999/xlink" x="0px" y="0px" viewBox="0 0 78.08 122.88" style="enable-background:new 0 0 78.08 122.88" xml:space="preserve"><g><path d="M27.92,122.88c-5.72-13.14-6.73-27.35-4.87-40.66c2.26-16.19,8.79-31.07,16.23-41.04L23.9,31.98 C14.27,43.26,8.56,57.56,5.84,72.19c-3.38,18.13-2.18,36.72,1.79,50.69H3.62c-3.88-14.36-4.99-33.12-1.58-51.39 C4.97,55.73,11.25,40.3,22,28.28c0.6-0.74,1.66-0.95,2.5-0.45l3.21,1.92c5.72-5.82,9.69-11.82,12.58-21.17 c0.77,0.08,1.58,0.24,2.43,0.49c0.58-1.24,1.11-2.51,1.58-3.81c0.55-1.5,1.04-3.02,1.46-4.55c0.14-0.51,0.68-0.82,1.19-0.67 c0.51,0.14,0.82,0.68,0.67,1.19c-0.45,1.61-0.95,3.18-1.51,4.7c-0.47,1.28-0.99,2.55-1.57,3.79c0.39,0.16,0.79,0.33,1.19,0.52 c-3.58,7.86-7.85,15.38-13.2,22.36l-0.04,0.04l1.47,0.88l21.49-19.98c0.41,0.27,0.83,0.58,1.25,0.93c0.94-0.89,1.79-1.78,2.57-2.65 c0.88-1,1.67-2,2.38-3c0.31-0.44,0.91-0.54,1.35-0.24c0.44,0.31,0.54,0.91,0.23,1.35c-0.73,1.04-1.57,2.1-2.51,3.17 c-0.79,0.9-1.66,1.8-2.6,2.7c0.34,0.35,0.67,0.71,1.01,1.1L38.99,36.51l1.32,0.79c9.54-6.4,19.7-9.36,30.92-11.28 c0.14,0.41,0.26,0.92,0.36,1.51c0.71-0.16,1.42-0.3,2.15-0.42c1.11-0.18,2.21-0.31,3.31-0.39c0.53-0.04,1,0.36,1.03,0.9 c0.04,0.53-0.36,1-0.9,1.03c-1.05,0.08-2.09,0.2-3.13,0.37c-0.72,0.12-1.46,0.26-2.2,0.43c0.05,0.46,0.09,0.96,0.12,1.49 c-10.61,1.54-18.94,4.27-27.89,9.76c-0.01,0.41-0.15,0.81-0.43,1.15c-7.62,9.45-14.48,24.45-16.77,40.89 c-1.84,13.19-0.74,27.28,5.29,40.12H27.92L27.92,122.88z M22.96,122.66c0.03,0.07,0.06,0.15,0.08,0.22H20.4 c-5.78-12.65-7.06-26.37-5.54-39.33C16.75,67.39,23,52.39,30.3,42.13c0.39-0.54,1.14-0.67,1.69-0.28c0.54,0.39,0.67,1.14,0.28,1.69 c-7.09,9.97-13.16,24.56-15,40.29C15.76,96.65,17.08,110.23,22.96,122.66L22.96,122.66z"/></g></svg>