<svg id="Layer_1" data-name="Layer 1" xmlns="http://www.w3.org/2000/svg" viewBox="0 0 76.68 123.12"><defs><style>.cls-1{fill-rule:evenodd;}</style></defs><title>electric-pole</title><path class="cls-1" d="M0,16.06H32.7V2.33l.07-.07a5.62,5.62,0,0,1,.55-.54,7.83,7.83,0,0,1,5-1.72,7.45,7.45,0,0,1,4.94,1.76,4.64,4.64,0,0,1,.49.5l.06.07V16.06H76.68V21H63.12a1.4,1.4,0,0,1-.26.39L43.62,40.8v1.32H76.68v4.93H63.25a.52.52,0,0,1-.1.11L43.62,66.88v56.24H32.94V66.8L13.49,47.16l-.1-.11H0V42.12H32.94v-1.4l-18.86-19a1.21,1.21,0,0,1-.33-.69H0V16.06Zm72.9-2.62a.69.69,0,0,1,.29.57h0a.69.69,0,0,1-.68.69H70.46a.69.69,0,0,1-.69-.69h0a.7.7,0,0,1,.3-.57h-.86a1,1,0,0,1-1-1v-.87h6.65v.87a1,1,0,0,1-1,1Zm-3.69-4.1h1a.71.71,0,0,1-.42-.63v0A.69.69,0,0,1,70.46,8h2.05a.69.69,0,0,1,.68.69v0a.7.7,0,0,1-.41.63h1a1,1,0,0,1,1,1.05v.67H68.16v-.67a1,1,0,0,1,1-1.05Zm-62,4.1a.71.71,0,0,1,.29.57h0a.69.69,0,0,1-.69.69h-2A.69.69,0,0,1,4.05,14h0a.7.7,0,0,1,.3-.57H3.49a1,1,0,0,1-1.05-1v-.87H9.09v.87a1.06,1.06,0,0,1-1.06,1ZM3.49,9.34h1a.71.71,0,0,1-.42-.63v0A.69.69,0,0,1,4.74,8h2a.69.69,0,0,1,.69.69v0a.7.7,0,0,1-.41.63H8a1.05,1.05,0,0,1,1.06,1.05v.67H2.44v-.67A1,1,0,0,1,3.49,9.34ZM60,47.05H16.69l16.25,16.4V50.25H43.62V63.53L60,47.05ZM43.62,37.46,59.93,21H16.71L32.94,37.37V23.7H43.62V37.46Z"/></svg>