<svg id="Layer_1" data-name="Layer 1" xmlns="http://www.w3.org/2000/svg" viewBox="0 0 122.88 62.43"><title>community</title><path d="M19.13,42.21a9.28,9.28,0,0,1-.79-1c-.58-.8-1.13-1.63-1.65-2.46L14.06,34.6a7.29,7.29,0,0,1-1.51-3.82,2.79,2.79,0,0,1,1.77-2.73c-.09-1.57-.15-3.16-.15-4.74,0-.93,0-1.88.05-2.8a7.85,7.85,0,0,1,.32-1.74A10,10,0,0,1,19,13.11,14.49,14.49,0,0,1,21.41,12c1.53-.56.79-2.9,2.47-2.94,3.92-.1,10.37,3.26,12.88,6a9.45,9.45,0,0,1,2.57,6.45l-.16,6.87a1.94,1.94,0,0,1,1.42,1.41,5.89,5.89,0,0,1-.74,3.62h0c0,.06-.05.06-.05.11l-3,4.93c-.68,1.11-1.38,2.25-2.17,3.29-.93,1.25-1.7,1-.9,2.22A8.79,8.79,0,0,0,35,45.28c-5.74,2.55-10.25,6.9-10.25,17.15H0C0,46.78,13.67,51.76,19.38,43.89c.66-1,.49-.89-.25-1.68ZM54,40.74c-1.81-1.6-4.08-3-4.38-6.33h-.2a2.56,2.56,0,0,1-1.28-.34,3.51,3.51,0,0,1-1.41-1.71c-.65-1.5-1.17-5.43.47-6.56l-.31-.2,0-.44c-.06-.79-.08-1.75-.1-2.76-.06-3.7-.13-8.18-3.11-9.08l-1.27-.39.84-1a48.26,48.26,0,0,1,7.45-7.57A19.07,19.07,0,0,1,59.25.13a10.4,10.4,0,0,1,8.39,2.35,15,15,0,0,1,2.25,2.26,9.54,9.54,0,0,1,6.72,3.93,13.5,13.5,0,0,1,2.19,4.41,15.37,15.37,0,0,1,.59,5A12,12,0,0,1,75.9,26.2a2.66,2.66,0,0,1,1.09.28c1.24.66,1.28,2.11,1,3.32-.32,1-.73,2.18-1.12,3.16-.47,1.33-1.15,1.58-2.48,1.44-.06,3.25-2.44,4.58-4.47,6.47,5,9.26,24.42,3.15,24.42,21.56H29.48c0-18.41,19-12,24.5-21.68Zm36.23,2.18a11.55,11.55,0,0,1-.76-.94c-.55-.77-1.09-1.57-1.59-2.38l-2.53-4a7,7,0,0,1-1.47-3.69,2.69,2.69,0,0,1,1.72-2.63c-.09-1.51-.15-3.05-.15-4.57,0-.91,0-1.82,0-2.71a7.23,7.23,0,0,1,.3-1.67,9.63,9.63,0,0,1,4.3-5.46,13.24,13.24,0,0,1,2.34-1.12c1.47-.54.76-2.8,2.38-2.83,3.78-.1,10,3.14,12.43,5.77a9.11,9.11,0,0,1,2.48,6.22l-.16,6.63a1.84,1.84,0,0,1,1.37,1.36,5.64,5.64,0,0,1-.71,3.49h0s-.05,0-.05.1l-2.88,4.76c-.66,1.07-1.33,2.17-2.09,3.18-.91,1.2-1.65,1-.88,2.14,5.52,7.59,18.6,2.8,18.6,17.89H99c0-9.73-4.16-14.19-9.53-16.81a8.88,8.88,0,0,0,.94-1.08c.63-.93.47-.86-.25-1.62Z"/></svg>