<svg xmlns="http://www.w3.org/2000/svg" shape-rendering="geometricPrecision" text-rendering="geometricPrecision" image-rendering="optimizeQuality" fill-rule="evenodd" clip-rule="evenodd" viewBox="0 0 512 512"><path fill-rule="nonzero" d="M256 0c70.69 0 134.69 28.66 181.02 74.98C483.35 121.31 512 185.31 512 256c0 70.68-28.66 134.69-74.98 181.02C390.69 483.35 326.69 512 256 512c-70.69 0-134.69-28.66-181.02-74.98C28.66 390.69 0 326.69 0 256c0-70.69 28.65-134.69 74.98-181.02C121.31 28.66 185.32 0 256 0zm-18.32 265.37c-4.99-4.43-11.25-8.26-12.1-17.47l-.53.01c-1.24-.02-2.43-.3-3.55-.94-1.78-1.02-3.04-2.76-3.89-4.73-1.79-4.13-3.21-14.99 1.31-18.09l-.85-.56-.1-1.21c-.17-2.18-.21-4.83-.26-7.61-.16-10.21-.37-22.58-8.58-25.06l-3.52-1.07 2.32-2.87c6.63-8.2 13.56-15.36 20.56-20.87 7.9-6.22 15.94-10.37 23.81-11.57 8.08-1.22 15.91.64 23.15 6.48 2.13 1.73 4.21 3.8 6.21 6.24 7.72.74 14.03 4.9 18.54 10.83 2.69 3.55 4.73 7.73 6.03 12.19 1.3 4.44 1.86 9.15 1.62 13.8-.44 8.33-3.48 16.46-9.62 22.39 1.08.03 2.1.28 3 .76 3.42 1.84 3.53 5.81 2.63 9.15-.89 2.79-2.02 6.02-3.08 8.74-1.3 3.66-3.19 4.35-6.85 3.96-.18 8.95-6.73 12.62-12.33 17.85 13.68 25.55 71.71 19.25 71.71 70.04H165.82c0-50.79 56.69-43.81 71.94-70.37l-.08-.02zm-91.2 2.92a26.08 26.08 0 0 1-2.11-2.58c-1.55-2.13-3.01-4.36-4.41-6.59l-7-11.14c-2.66-3.87-4.05-7.41-4.05-10.22 0-2.8 1.58-6.45 4.75-7.27-.26-4.19-.42-8.45-.42-12.66 0-2.5.05-5.02.14-7.49.14-1.56.42-3.11.84-4.62a26.624 26.624 0 0 1 11.9-15.11 30.81 30.81 0 0 1 6.45-3.08c4.07-1.54 2.11-7.75 6.59-7.84 10.47-.28 27.68 8.69 34.39 15.96a26.508 26.508 0 0 1 6.86 17.21l-.42 18.33c1.86.46 3.31 1.91 3.78 3.77.55 2.25 0 5.32-1.96 9.66 0 .14-.15.14-.15.29l-7.98 13.15c-1.81 2.97-3.68 6.01-5.78 8.79-2.49 3.34-4.54 2.74-2.41 5.93 1.78 2.45 3.85 4.42 6.13 6.08-16.51 8.14-31.37 19.2-34.59 43.43H94.65c0-41.78 37.25-28.51 52.51-49.51 1.76-2.58 1.29-2.39-.68-4.49zm182.81 1.88c-.73-.78-1.41-1.62-2.03-2.49-1.5-2.06-2.91-4.2-4.26-6.35l-6.76-10.76c-1.62-2.35-2.75-4.58-3.36-6.58.47-1.34.93-2.68 1.39-4.07.2-.49.38-1 .51-1.52.36-1.31.62-2.69.77-4.12.41-.25.87-.45 1.37-.58-.25-4.05-.41-8.16-.41-12.23 0-1.25.02-2.51.04-3.76 1.28-3.76 2.06-7.69 2.39-11.66 2.19-4.49 5.66-8.27 10-10.85 1.95-1.22 4.05-2.23 6.23-2.97 3.93-1.48 2.03-7.48 6.36-7.57 10.1-.26 26.71 8.39 33.19 15.41a25.67 25.67 0 0 1 6.62 16.61l-.41 17.69c1.79.44 3.2 1.84 3.65 3.64.54 2.17 0 5.13-1.9 9.32 0 .14-.13.14-.13.28l-7.7 12.69c-1.75 2.87-3.55 5.8-5.58 8.49-2.41 3.22-4.39 2.64-2.34 5.72 14.75 20.26 50.42 7.48 50.42 47.78h-54.93c-3.34-24.68-18.94-35.85-35.89-44.05 1.26-1.11 2.41-2.34 3.42-3.73 1.69-2.49 1.25-2.31-.66-4.34zM275.03 35.13V73.2h-33.35V34.78c-55.51 3.54-105.47 27.51-142.43 64.47-37.61 37.61-61.77 88.67-64.64 145.36h45.2v33.34H35.4c5.15 52.45 28.59 99.55 63.85 134.8 36.96 36.97 86.92 60.94 142.43 64.47v-32.64h33.35v32.29c53.62-4.56 101.81-28.21 137.72-64.12 35.26-35.25 58.7-82.35 63.85-134.8h-39.7v-33.34h40.49c-2.87-56.69-27.03-107.75-64.64-145.36-35.91-35.91-84.1-59.56-137.72-64.12z"/></svg>